<?xml version="1.0" standalone="no"?>
<!DOCTYPE svg PUBLIC "-//W3C//DTD SVG 20010904//EN"
 "http://www.w3.org/TR/2001/REC-SVG-20010904/DTD/svg10.dtd">
<svg version="1.0" xmlns="http://www.w3.org/2000/svg"
 width="200.000000pt" height="200.000000pt" viewBox="0 0 200.000000 200.000000"
 preserveAspectRatio="xMidYMid meet">

<g transform="translate(0.000000,200.000000) scale(0.100000,-0.100000)"
fill="#212122" stroke="none">
<path d="M0 1653 l0 -348 98 98 c53 53 102 97 107 97 6 0 107 -97 225 -215
l215 -215 142 142 143 143 -215 215 c-118 118 -215 220 -215 225 0 5 44 54 97
107 l98 98 -348 0 -347 0 0 -347z"/>
<path d="M1400 1895 l105 -105 -220 -220 -220 -220 143 -142 142 -143 220 220
220 220 105 -105 105 -105 0 353 0 352 -352 0 -353 0 105 -105z"/>
<path d="M428 713 l-218 -218 -105 105 -105 105 0 -353 0 -352 352 0 353 0
-105 105 -105 105 220 220 220 220 -140 140 c-77 77 -142 140 -145 140 -3 0
-103 -98 -222 -217z"/>
<path d="M1205 790 l-140 -140 220 -220 220 -220 -105 -105 -105 -105 353 0
352 0 0 352 0 353 -105 -105 -105 -105 -218 218 c-119 119 -219 217 -222 217
-3 0 -68 -63 -145 -140z"/>
</g>
</svg>
